<svg width="29" height="29" viewBox="0 0 29 29" fill="none" xmlns="http://www.w3.org/2000/svg">
<path d="M9.51758 15.4824C11.7265 15.4826 13.5174 17.2735 13.5176 19.4824V25C13.5176 27.209 11.7266 28.9998 9.51758 29H4C1.79086 29 5.88952e-07 27.2091 0 25V19.4824C0.000181267 17.2734 1.79097 15.4824 4 15.4824H9.51758ZM25 15.4824C27.209 15.4824 28.9998 17.2734 29 19.4824V25C29 27.2091 27.2091 29 25 29H19.4824C17.2735 28.9998 15.4824 27.209 15.4824 25V19.4824C15.4826 17.2736 17.2736 15.4826 19.4824 15.4824H25ZM9.51758 0C11.7266 0.00018142 13.5176 1.79097 13.5176 4V9.51758C13.5174 11.7265 11.7265 13.5174 9.51758 13.5176H4C1.79097 13.5176 0.00018142 11.7266 0 9.51758V4C8.34235e-09 1.79086 1.79086 8.34222e-09 4 0H9.51758ZM25 0C27.2091 0 29 1.79086 29 4V9.51758C28.9998 11.7266 27.209 13.5176 25 13.5176H19.4824C17.2735 13.5174 15.4826 11.7265 15.4824 9.51758V4C15.4824 1.79097 17.2734 0.000182 19.4824 0H25Z" fill="white"/>
</svg>
